<svg xmlns="http://www.w3.org/2000/svg" version="1.1" viewBox="-5.0 -10.0 110.0 135.0">
 <path d="m39.312 26.477c-0.9375-0.75781-2.125-1.207-3.375-1.25-1.9688-0.0625-3.8438 0.89063-4.9375 2.5273v0.011719c-1.4062 2.1406-2.6562 4.4141-3.7812 6.832v0.007813c-0.5 1.0977-0.53125 2.3359-0.09375 3.4453h-10c-1.375 0-2.6562 0.53516-3.625 1.5-0.96875 0.96094-1.5 2.2656-1.5 3.625v0.007813c0 1.332 0.5 2.6094 1.4375 3.5625-0.9375 0.95703-1.4375 2.2344-1.4375 3.5664v0.007812c0 1.3281 0.5 2.6094 1.4375 3.5625-0.9375 0.95703-1.4375 2.2344-1.4375 3.5664v0.007812c0 1.332 0.5 2.6094 1.4375 3.5664-0.9375 0.95312-1.4375 2.2344-1.4375 3.5625v0.007812c0 0.69531 0.125 1.375 0.40625 2.0039h-6.1562s-1.5625 0.003906-1.5625 1.5625c0 3.7383 3.0312 6.7656 6.75 6.7656h46.969c0.125 0 0.28125-0.015625 0.40625-0.046875 0.09375 0.03125 0.21875 0.046875 0.375 0.046875h17.438c0.34375 0 0.65625-0.11328 0.9375-0.31641 2.0625-1.5586 3.9062-3.5703 5.4688-5.9414 2.5 0.65625 5.1562 0.30469 7.4062-0.98828 2.2812-1.3047 3.9375-3.4688 4.625-6.0156v-0.011718c0.625-2.3477 0-4.8594-1.6562-6.6367-1.375-1.4844-3.3125-2.2852-5.3125-2.2344 0.03125-0.77734 0.0625-1.5664 0.0625-2.3633 0-0.86328-0.6875-1.5625-1.5625-1.5625h-28.938c-0.21875-0.78516-0.65625-1.5078-1.2188-2.1094 0.90625-0.95312 1.4375-2.2305 1.4375-3.5625v-0.007813c0-1.3594-0.53125-2.6641-1.5-3.625-0.96875-0.96484-2.2812-1.5-3.625-1.5h-9.375c0.59375-1.0938 0.78125-2.3242 0.625-3.5117 0.28125 0.011719 0.5625 0 0.84375-0.023437 0.84375-0.082031 1.5-0.84375 1.4062-1.6992-0.09375-0.85938-0.84375-1.4922-1.6875-1.4141-0.3125 0.03125-0.65625 0.015625-0.96875-0.050782-0.03125-0.007812-0.0625-0.015624-0.125-0.027343l1.125-0.61328c0.75-0.42188 1-1.3711 0.59375-2.125-0.4375-0.75-1.375-1.0195-2.125-0.59766l-1.25 0.69141c0.03125-0.09375 0.03125-0.1875 0.0625-0.28516 0.125-0.30859 0.25-0.59766 0.4375-0.85156 0.5-0.70703 0.34375-1.6797-0.375-2.1797-0.6875-0.49609-1.6562-0.33203-2.1562 0.37109-0.1875 0.23438-0.34375 0.48047-0.46875 0.74219zm13.094 34.273c1.5625 4.6094 4.0938 8.4727 7.3125 11.051 0 0 16.375 0 16.375-0.003906 5.0625-4.0859 8.5312-11.398 8.9062-19.816h-34.188c0.125 2.9492 0.625 5.7656 1.4688 8.3555 0.0625 0.125 0.09375 0.26562 0.125 0.41406zm1.0938 8.9727h-45.344c0.59375 1.2266 1.8438 2.0781 3.2812 2.0781h43.75c-0.59375-0.65234-1.1562-1.3438-1.6875-2.0781zm-22.156-7.1523c-0.09375 0.007813-0.15625 0.015626-0.21875 0.015626h-14c-0.53125 0-1.0312 0.21094-1.4062 0.58594-0.40625 0.375-0.59375 0.88281-0.59375 1.4141v0.007812c0 0.53125 0.1875 1.0391 0.59375 1.4141 0.375 0.375 0.875 0.58984 1.4062 0.58984h34.438c-0.6875-1.2617-1.2812-2.6055-1.8125-4.0117h-10.562c-0.0625 0-0.125-0.003907-0.21875-0.015626-0.9375 1.0586-2.2812 1.7266-3.8125 1.7266s-2.875-0.66797-3.8125-1.7266zm53.312 3.2383c1.4688 0.1875 2.9375-0.097656 4.2188-0.83594 1.5625-0.89844 2.7188-2.375 3.1875-4.1133v-0.015625c0.34375-1.3086 0-2.707-0.9375-3.6953-0.875-0.92969-2.125-1.375-3.375-1.2109-0.5625 3.5898-1.625 6.9297-3.0938 9.8711zm-31.906-20.625c0.53125 0 1.0312-0.20703 1.4062-0.58203s0.59375-0.88672 0.59375-1.418v-0.007813c0-0.53125-0.21875-1.043-0.59375-1.418s-0.875-0.58203-1.4062-0.58203h-35.625c-0.53125 0-1.0312 0.20703-1.4062 0.58203-0.40625 0.375-0.59375 0.88672-0.59375 1.418v0.007813c0 0.53125 0.1875 1.043 0.59375 1.418 0.375 0.375 0.875 0.58203 1.4062 0.58203h10.094c3.3125 0 5.9688 2.6719 5.9688 5.9648v2.3516c0.03125 0.12109 0.0625 0.25391 0.0625 0.38281 0 0.13672-0.03125 0.26563-0.0625 0.39063v4.9336c0 1.082 0.875 1.9648 1.9688 1.9648s1.9688-0.88281 1.9688-1.9688v-8.0547c0-3.293 2.6875-5.9648 5.9688-5.9648zm-12.5 10.262v3.7617 0.25391h8.5312c-0.34375-1.2969-0.625-2.6406-0.8125-4.0156zm-10.188 0h-12.938c-0.53125 0-1.0312 0.21484-1.4062 0.58984-0.40625 0.375-0.59375 0.88281-0.59375 1.4141v0.007812c0 0.53125 0.1875 1.0391 0.59375 1.4141 0.375 0.37891 0.875 0.58984 1.4062 0.58984h12.938v-0.25391zm22.688-7.1367h-9.6562c-1.5625 0-2.8438 1.2734-2.8438 2.8398v1.1719h7.4375c-0.03125-0.625-0.0625-1.2617-0.0625-1.9023 0-0.86328 0.71875-1.5625 1.5625-1.5625h4.9375c-0.375-0.34766-0.875-0.54688-1.375-0.54688zm-35.625 0c-0.53125 0-1.0312 0.21484-1.4062 0.58984-0.40625 0.375-0.59375 0.88281-0.59375 1.4141v0.007812c0 0.53125 0.1875 1.0391 0.59375 1.418 0.375 0.375 0.875 0.58203 1.4062 0.58203h12.938v-1.1719c0-1.5664-1.25-2.8398-2.8438-2.8398zm49.781-3.0703c-0.3125-0.19922-0.53125 0.21484-0.53125 0.67969 0 0.86328 0.71875 1.5625 1.5625 1.5625 0 0 0.65625 0.10547 1.2188-0.57031 0.0625-0.0625 0.3125-0.38672 0.6875-0.8125 0.84375-1.0273 1.25-2.3555 1.1562-3.6875-0.125-1.332-0.78125-2.5625-1.8125-3.418v-0.003907c-0.90625-0.75-1.0312-2.0859-0.28125-2.9844 0 0 0.6875-0.82031 0.6875-0.82031 0.5625-0.66016 0.46875-1.6484-0.1875-2.2031-0.65625-0.55078-1.6562-0.46094-2.2188 0.19922l-0.65625 0.82422c-1.875 2.2227-1.5625 5.5273 0.65625 7.3828v0.003906c0.40625 0.32812 0.625 0.79297 0.6875 1.3008 0.03125 0.50781-0.125 1.0117-0.4375 1.4023l-0.6875 0.8125zm6.5625 0c-0.3125-0.19922-0.53125 0.21484-0.53125 0.67969 0 0.86328 0.71875 1.5625 1.5625 1.5625 0 0 0.65625 0.10547 1.2188-0.57031 0.03125-0.0625 0.3125-0.38672 0.6875-0.8125 0.84375-1.0273 1.25-2.3555 1.125-3.6875-0.125-1.332-0.75-2.5625-1.7812-3.418v-0.003907c-0.90625-0.75-1.0312-2.0859-0.28125-2.9844 0 0 0.6875-0.82031 0.6875-0.82031 0.5625-0.66016 0.46875-1.6484-0.1875-2.2031-0.6875-0.55078-1.6562-0.46094-2.2188 0.19922l-0.6875 0.82422c-1.8438 2.2227-1.5625 5.5273 0.6875 7.3828v0.003906c0.375 0.32812 0.625 0.79297 0.6875 1.3008 0.03125 0.50781-0.125 1.0117-0.4375 1.4023l-0.6875 0.8125zm-13.125 0c-0.3125-0.19922-0.5 0.21484-0.5 0.67969 0 0.86328 0.6875 1.5625 1.5625 1.5625 0 0 0.625 0.10547 1.1875-0.57031 0.0625-0.0625 0.3125-0.38672 0.6875-0.8125 0.84375-1.0273 1.2812-2.3555 1.1562-3.6875-0.125-1.332-0.78125-2.5625-1.8125-3.418v-0.003907c-0.875-0.75-1-2.0859-0.25-2.9844 0 0 0.65625-0.82031 0.65625-0.82031 0.5625-0.66016 0.46875-1.6484-0.1875-2.2031-0.65625-0.55078-1.6562-0.46094-2.1875 0.19922l-0.6875 0.82422c-1.875 2.2227-1.5625 5.5273 0.65625 7.3828v0.003906c0.40625 0.32812 0.65625 0.79297 0.6875 1.3008 0.0625 0.50781-0.09375 1.0117-0.4375 1.4023l-0.65625 0.8125zm-24.625-7.1875h-0.0625c-1.4688-0.003906-2.9688-0.066406-4.4375-0.20312-0.46875-0.046875-0.84375-0.30469-1.0938-0.69141-0.21875-0.38672-0.21875-0.85938-0.0625-1.2695 1.0312-2.2617 2.2188-4.3906 3.5625-6.3945 0.46875-0.73828 1.3125-1.1719 2.2188-1.1406 0.875 0.03125 1.6875 0.51563 2.125 1.2852 0.03125 0.011719 0.03125 0.015625 0.03125 0.023437 0.84375 1.4258 1.75 2.9766 2.5625 4.4141 0.46875 0.78125 0.46875 1.7383 0.0625 2.5352-0.4375 0.78906-1.25 1.3086-2.125 1.3672-0.9375 0.046876-1.8438 0.070313-2.7812 0.074219zm2.625-1.2734c0.03125-0.035156 0.09375-0.070313 0.15625-0.10547 0.71875-0.47656 0.90625-1.4453 0.4375-2.1641s-1.4688-0.91797-2.1875-0.4375c-0.03125 0.03125-0.09375 0.070313-0.15625 0.10547-0.71875 0.47656-0.90625 1.4453-0.4375 2.1641 0.5 0.71875 1.4688 0.91797 2.1875 0.4375zm-4.2812-2.7617c-0.03125-0.027344-0.09375-0.054687-0.15625-0.085937-0.78125-0.375-1.7188-0.042969-2.0938 0.73437-0.375 0.77734-0.03125 1.7109 0.75 2.082 0.03125 0.027344 0.09375 0.058594 0.15625 0.085937 0.78125 0.375 1.7188 0.046875 2.0938-0.73047 0.375-0.78125 0.03125-1.7148-0.75-2.0859zm0.375-2.2344c0.03125 0.066406 0.03125 0.12891 0.03125 0.19141 0.1875 0.84766 1 1.3867 1.8438 1.2109 0.84375-0.17578 1.4062-1.0039 1.2188-1.8477 0-0.0625-0.03125-0.125-0.03125-0.19141-0.1875-0.84375-1-1.3867-1.8438-1.2109-0.84375 0.17578-1.4062 1.0039-1.2188 1.8477z" fill-rule="evenodd"/>
<text x="0.0" y="117.5" font-size="5.0" font-weight="bold" font-family="Arbeit Regular, Helvetica, Arial-Unicode, Arial, Sans-serif" fill="#000000">Created by rendicon</text><text x="0.0" y="122.5" font-size="5.0" font-weight="bold" font-family="Arbeit Regular, Helvetica, Arial-Unicode, Arial, Sans-serif" fill="#000000">from Noun Project</text></svg>