<svg xmlns="http://www.w3.org/2000/svg" xmlns:xlink="http://www.w3.org/1999/xlink" version="1.1" x="0px" y="0px" viewBox="0 0 100 125" style="enable-background:new 0 0 100 100;" xml:space="preserve"><path d="M94.9,59.87h-1.74c1.08-10.44-7.7-20.06-18.11-20.86c-2.51-0.37-5.65,0.57-7.91-0.98c0.43-0.43,0.81-0.92,1.12-1.45  c0,0,0,0,0,0c1.99-3.4,0.94-7.75-2.61-8.46c0.06-0.52,0.82-0.84,1.04-0.8c1.31-0.04,1.27-2.05-0.06-2.01  c-0.41,0.01-1.45,0.14-2.26,1.03c-0.26,0.29-0.44,0.6-0.56,0.93c-1.78-0.8-3.81-0.13-5.24,1.29c2.32-5.87-1.9-12.9-8.45-13.24  c-3.07-16.97-27.15-16.97-30.23,0C11,15.97,7.71,27.31,14.46,32.72l3.9,18.77c-1.05,1.33-1.48,3.31-1.02,4.97h-3.17  c-3.25,0-5.98,2.33-6.49,5.55l-0.07,0.44L3.95,85.58H1.47c-0.56,0-1.01,0.45-1.01,1.01v1.86c0,3.15,2.6,5.71,5.76,5.66v2.31  c0,0.56,0.45,1.01,1.01,1.01H46.7c0.54,0,0.97-0.43,1-0.96c1.28,0.62,2.69,0.95,4.13,0.95c0.02,0,11.96-0.01,11.98,0  c0,0,11.99,0,11.99,0c3.85,0,7.29-2.3,8.75-5.87c0,0,9.19-22.38,9.19-22.38c1.6,0.1,3.29-0.13,4.46-1.37  C101.09,64.96,98.95,59.8,94.9,59.87z M58.69,32.31c0.62-2.2,2.28-3.7,4.1-3.29c0.74,0.19,1.14,0.91,1.91,0.99  c2.59,0.09,3.25,3.11,1.82,5.55C64.09,40.09,57.22,37.22,58.69,32.31z M60.05,39.22c1.67,0.8,3.68,0.84,5.38,0.11  c2.64,2.11,6.45,1.51,9.65,1.79c9.41,0.59,17.02,9.56,16.06,18.94c-3.6-0.87-9.15-0.88-10.19,3.52c-0.22,1.18,0.12,2.43-0.16,3.59  c-0.29,1.17-1.74,2.2-2.65,1.41c-0.83-0.71-0.67-2.47-1.76-2.58c-1.28,0-1.27,1.63-1.09,2.56c0.14,1.32-0.1,2.78-1.07,3.67  c-1.12,1.03-3.09,0.93-4.09-0.22c-1.43-1.63-0.62-4.14-0.83-6.29c-0.53-4.89-5.3-6.24-9.58-5.93c-4.32,0.04-8.64,0.08-12.96,0.11  c-0.89,0.09-1.57-0.28-1.98-1.06c-1.87-2.52-5.38-2.54-8.24-2.35c0.24-0.02,1.15-1.93,1.32-2.16c1.77-2.3,4.78-3.21,6.41-5.65  c1.34-2,1.38-4.58,2.2-6.85c1.48-4.09,5.79-6.97,10.14-6.77C57.1,36.86,58.39,38.41,60.05,39.22z M55.5,33.06l0.07-0.32  c0.46-0.38,0.88-0.79,1.26-1.23c-0.16,0.49-0.25,1-0.3,1.51C56.18,33.02,55.84,33.04,55.5,33.06z M16.02,31.4  c-5.93-4.38-2.97-14.14,4.7-14.09c0.51,0,1-0.44,1.06-0.95C22.53,9.61,28.22,4.53,35,4.53c6.8,0,12.48,5.08,13.23,11.82  c0.05,0.51,0.57,0.95,1.09,0.95c10.49,0.23,10.3,15.37,0.04,15.64c-2.51,0.02-4.92-1.24-6.37-3.29c-0.27-0.32-0.7-0.5-1.12-0.36  c-2.13,1.14-4.4,1.91-6.87,1.87c-2.33,0-4.62-0.62-6.64-1.79c-0.45-0.26-1.02-0.13-1.32,0.29C24.63,33.18,19.38,34,16.02,31.4z   M18.34,41.48l-1.52-7.31c0.61,0.26,1.24,0.44,1.89,0.59l9.71,10.52c0.38,0.41,1.02,0.43,1.42,0.06c0.41-0.38,0.43-1.01,0.06-1.42  l-8.31-9c1.52-0.14,2.96-0.62,4.26-1.43l10.88,11.39c0.91,0.95,2.36-0.44,1.45-1.39c0,0-10.74-11.23-10.74-11.23  c0.24-0.23,0.47-0.46,0.68-0.71c2,1.01,4.21,1.52,6.43,1.59l5.32,4.92c0.97,0.89,2.33-0.58,1.37-1.48c0,0-3.91-3.61-3.91-3.61  c1.58-0.24,3.13-0.7,4.57-1.43c1.87,2.21,4.74,3.48,7.63,3.43c-0.98,0.02-2.7,2.23-3.26,2.97C43.13,41.56,44.6,47,40.17,49.7  c-2.55,1.63-4.71,3.94-5.84,6.77h-7.18c0.71-1.94,0.33-4.67-1.73-5.64c2.51-2.6-1.29-3.41-2.48-1.03c-0.93-0.31-1.94-0.2-2.82,0.2  l-0.96-4.61l2.46,2.73c0.89,0.97,2.37-0.36,1.5-1.35C23.11,46.78,18.34,41.48,18.34,41.48z M24.39,57.16  c-1.23,1.29-2.8,0.95-4.12,0.18c-1.81-1.04-1.18-3.94,0.13-5.1c0.36-0.32,0.81-0.57,1.29-0.61c0.93-0.04,1.47,0.82,2.41,0.87  C26.2,53.03,25.59,56,24.39,57.16z M14.18,58.49h4.27c1.98,2.01,5.54,2.21,7.44,0h13.86c1.95,0,3.69,1.29,4.32,3.12H32.21  c-1.85,0-3.36,1.51-3.36,3.36v4.02c-0.05,2.48-3.72,2.48-3.77,0c0-0.56-0.45-1.01-1.01-1.01s-1.01,0.45-1.01,1.01v2.77  c-0.03,2.38-3.47,2.51-3.75,0.19c0,0-0.01-5.73-0.01-5.73c0-0.56-0.45-1.01-1.01-1.01s-1.01,0.45-1.01,1.01  c0,0.29-0.08,0.64-0.23,0.89c-0.85,1.61-3.35,1.11-3.53-0.7c0,0-0.01-1.45-0.01-1.45c0.01-1.98-1.72-3.51-3.68-3.36  C10.45,59.76,12.17,58.49,14.18,58.49z M9.47,63.62h0.69c0.74,0,1.35,0.61,1.35,1.35c-0.17,3.28,2.39,6.44,5.78,4.66  c-0.14,0.08,0,1.76,0,1.99c0.04,1.33,0.58,2.59,1.71,3.35c1.48,1.02,3.65,0.83,4.92-0.45c0.17-0.17,1.46-1.95,1.11-2.16  c2.48,1.5,5.91-0.46,5.83-3.38c0,0,0-4.02,0-4.02c0-0.74,0.61-1.35,1.35-1.35h12.25c0.5,3.14,2.94,18.51,3.49,21.95H5.98L9.47,63.62  z M45.7,95.39H8.24v-1.3h37.46C45.69,94.41,45.7,95.07,45.7,95.39z M44.69,92.08c-9.83,0-19.66,0-29.49,0c-3.03,0-6.05,0-9.08,0  c-2.45-0.02-3.91-2.16-3.64-4.49c0,0,48.97,0,48.97,0C51.49,92.07,48.37,92.38,44.69,92.08z M49.55,82.81l0.65,2.77h-0.21  L49.55,82.81z M51.82,95.39c-1.27,0-3.15-0.32-4.1-1.25c0.51-0.22,1.26-0.14,1.83-0.32c0.83-0.27,1.58-0.73,2.21-1.33  c0.34,1.04,0.86,2.04,1.52,2.91H51.82z M62.8,95.39h-6.83c-1.45-1.38-2.62-3.36-2.71-5.4c0.03-1.18,1.07-4.53-0.99-4.41l-3.83-16.42  H62.8V95.39z M47.06,67.14l-0.81-5.11c-0.01-0.05-0.02-0.1-0.02-0.15h16.52c2.82-0.02,4.85,2.52,4.56,5.26H47.06z M70.62,95.39  h-5.81c0-8.74,0-17.49,0-26.23c0.84,0,1.67,0,2.51,0c-0.65,6.77,9.13,8,9.95,1.19c0.47,0.23,0.98,0.41,1.52,0.45L74.1,90.93  C73.48,93.56,72.05,95.39,70.62,95.39z M82.69,90.77c-1.15,2.81-3.86,4.62-6.89,4.62c0,0-1.54,0-1.54,0  c1.47-1.88,1.86-4.28,2.4-6.53c1.17-4.99,2.33-9.98,3.49-14.98c0.11-0.46,0.4-3.32,0.83-3.56c0.5-0.31,0.94-0.68,1.28-1.16h9.31  L82.69,90.77z M96.77,66.37c-0.86,1-2.55,0.76-3.71,0.78c0,0-10.15,0-10.15,0c0-0.05,0-0.1,0-0.15c0,0,0-2.87,0-2.87  c0-1.24,1.02-2.24,2.24-2.24c0,0,9.74,0,9.74,0C97.18,61.81,98.41,64.8,96.77,66.37z M15.3,62.58c-0.45-1.25,0.87-1.82,2.23-1.47  c1.33,0.5,2.08,1.76,0.97,2.52c-0.48,0.26-1.1,0.08-1.36-0.42c-0.01-0.01-0.08-0.14-0.22-0.18c-0.14-0.05-0.26,0.01-0.27,0.02  C16.14,63.29,15.54,63.08,15.3,62.58z M26.73,60.8c0.14-0.26,0.54-0.89,1.38-1.16c0.82-0.26,1.5,0,1.76,0.13  c1.18,0.58,0.31,2.38-0.88,1.81c-0.01-0.01-0.14-0.07-0.27-0.02c-0.14,0.04-0.21,0.17-0.21,0.17C27.89,62.89,26.12,61.96,26.73,60.8  z M20.54,64.87c0.13-0.26,0.54-0.9,1.39-1.17c0.81-0.26,1.5,0,1.76,0.13c1.18,0.58,0.31,2.38-0.88,1.81  c-0.02-0.01-0.14-0.06-0.27-0.02c-0.14,0.04-0.21,0.17-0.21,0.17C21.7,66.95,19.94,66.03,20.54,64.87z M55.62,41.19  c1.01,0.84-0.26,2.38-1.28,1.55c-0.15-0.13-0.37-0.16-0.55-0.08c-0.19,0.08-0.32,0.26-0.33,0.47c-0.03,0.56-0.51,0.98-1.06,0.95  c-0.56-0.03-0.98-0.51-0.95-1.06C51.51,40.99,54.09,39.85,55.62,41.19z M80.84,53.96c0.06-0.97,0.67-1.84,1.56-2.21  c1.13-0.62,3.74,0.26,2.74,1.81c-0.35,0.43-0.99,0.49-1.42,0.14c-0.16-0.13-0.37-0.16-0.55-0.09c-0.19,0.08-0.32,0.26-0.33,0.47  C82.76,55.39,80.77,55.27,80.84,53.96z M71.81,46.99c-0.99-1.54,1.61-2.42,2.74-1.81c1.29,0.37,2.47,3.03,0.56,3.28  c-0.53,0-0.97-0.41-1-0.95c-0.01-0.43-0.56-0.67-0.88-0.39C72.79,47.48,72.16,47.42,71.81,46.99z M60.5,52.09  c-0.99-1.54,1.61-2.42,2.74-1.81c1.28,0.37,2.47,3.03,0.56,3.28c-0.53,0-0.97-0.41-1-0.95c-0.01-0.43-0.55-0.67-0.88-0.39  C61.49,52.58,60.86,52.52,60.5,52.09z M49.07,52.86c1.01,0.84-0.26,2.38-1.28,1.55c-0.16-0.13-0.37-0.16-0.55-0.09  c-0.19,0.08-0.32,0.26-0.33,0.47c-0.03,0.56-0.51,0.98-1.06,0.95c-0.56-0.03-0.98-0.51-0.95-1.06  C44.96,52.66,47.54,51.52,49.07,52.86z M23.78,16.58C24.42,10.86,29.24,6.54,35,6.54c0.56,0,1.01,0.45,1.01,1.01S35.56,8.56,35,8.56  c-4.73,0-8.7,3.55-9.23,8.25C25.63,18.11,23.64,17.89,23.78,16.58z"/><text x="0" y="115" fill="#000000" font-size="5px" font-weight="bold" font-family="'Helvetica Neue', Helvetica, Arial-Unicode, Arial, Sans-serif">Created by ahmadwil</text><text x="0" y="120" fill="#000000" font-size="5px" font-weight="bold" font-family="'Helvetica Neue', Helvetica, Arial-Unicode, Arial, Sans-serif">from the Noun Project</text></svg>