<svg xmlns="http://www.w3.org/2000/svg" xmlns:xlink="http://www.w3.org/1999/xlink" version="1.1" x="0px" y="0px" viewBox="0 0 100 125" style="enable-background:new 0 0 100 100;" xml:space="preserve"><path d="M93.5,74.6H92V61.5c0-13.1-10.7-23.8-23.9-23.8h-1.3c-6.5,0-12.5,3.1-16.3,8.3c-0.4-0.1-0.8-0.2-1.2-0.2c-0.1,0-0.1,0-0.2,0  c-0.2-0.1-0.3-0.1-0.5-0.1c0,0-0.5,0-1.3,0.2l-6.4-5.7c0.2-0.4,0.3-0.8,0.4-1.3c0.2-1.4-0.1-2.8-0.9-3.9c-0.8-1.1-2-1.9-3.4-2.1  c-1.4-0.2-2.8,0.1-3.9,0.9s-1.9,2-2.1,3.4c0,0.2,0,0.3-0.1,0.5c-1.6,0.7-2.8,2.2-3,4c-0.5,2.9,1.5,5.6,4.4,6c1.2,0.2,2.4,0,3.4-0.6  l5.6,5c-0.2,0.9-0.3,1.8-0.3,2.9v10.9c0,0.1,0,0.2,0.1,0.3c-0.2,0.1-0.3,0.2-0.5,0.3c-0.1-0.6-0.2-1.1-0.6-1.6  c-0.9-1.3-2.6-1.6-3.7-1.7c-0.6-1.7-1.5-2.8-2.8-3.3c-1.8-0.6-3.6,0.1-4.5,0.7c-1.6-0.8-3.1-1-4.4-0.4c-1.1,0.5-1.8,1.4-2.2,2.1  c-5.9-2.2-11.6-1.2-11.7-1.2l-0.8,0.1l-0.2,0.8c-0.1,0.3-1.5,6.7,2.5,12.5h-1.4c-1.5,0-2.7,1.4-2.4,2.9l1.4,5.6  c0.4,1.7,1.8,2.9,3.5,2.9h77.7c1.7,0,3.2-1.2,3.5-2.9l1.4-5.6C96.2,76,95,74.6,93.5,74.6z M43.5,68.1c1.8,0,3.2,1.4,3.2,3.2  s-1.4,3.2-3.2,3.2s-3.2-1.4-3.2-3.2S41.8,68.1,43.5,68.1z M37.7,71.9c0,1.4-1.1,2.6-2.6,2.6s-2.6-1.1-2.6-2.6s1.1-2.6,2.6-2.6  S37.7,70.5,37.7,71.9z M41.9,49.7l-6.3-5.6l-0.8,0.6c-0.7,0.6-1.5,0.8-2.4,0.7c-1.6-0.3-2.7-1.8-2.5-3.4c0.2-1.2,1.1-2.1,2.2-2.4  l1-0.2l-0.1-1c0-0.3,0-0.6,0-0.8c0.1-0.8,0.5-1.5,1.2-1.9s1.4-0.6,2.2-0.5c0.8,0.1,1.5,0.5,1.9,1.2s0.6,1.4,0.5,2.2  c-0.1,0.4-0.2,0.8-0.5,1.2l-0.6,0.8l6.8,6l-0.9,1.1c-0.5,0.4-0.9,0.9-1.3,1.4L41.9,49.7z M43.3,55c0-6.5,4.7-6.8,5.3-6.8  c0,0,0.1,0,0.1,0c0.1,0,0.2,0.1,0.3,0.1c1.8,0.2,3.1,0.9,3.8,1.9c1.2,1.9,0.4,4.6,0.4,4.7c-0.2,0.7,0.2,1.4,0.8,1.6  c0.1,0,0.3,0.1,0.4,0.1c0.5,0,1-0.3,1.2-0.9c0.1-0.2,1.2-3.9-0.6-6.8c-0.5-0.8-1.2-1.4-2-1.9c3.3-4.2,8.4-6.7,13.9-6.7h1.3  c11.8,0,21.4,9.5,21.4,21.3v12.9H48.3c0.6-0.9,0.9-2,0.9-3.1c0-3.1-2.6-5.7-5.7-5.7c-0.1,0-0.1,0-0.2,0V55z M25.3,62.6  c0.8-0.3,2,0.2,2.8,0.7l0.7,0.4l0.7-0.5c0.4-0.3,1.9-1.2,2.9-0.8c0.8,0.3,1.3,1.5,1.5,2.5l0.2,1.1l1.1-0.1c0.7-0.1,2.1,0,2.5,0.6  c0.2,0.2,0.2,0.7,0,1.3c-0.8-0.5-1.7-0.8-2.6-0.8c-1.8,0-3.3,0.9-4.2,2.3c-1.8-2.7-4.1-4.5-6.5-5.8C24.7,63,24.9,62.7,25.3,62.6z   M11.7,63.5c3.1-0.3,13.5-0.6,18.3,9c0,0.1,0.1,0.2,0.2,0.3c0.1,0.7,0.3,1.3,0.7,1.8H15.1C11.3,70.4,11.5,65.4,11.7,63.5z M92,82.5  L92,82.5L92,82.5c-0.1,0.6-0.6,1-1.1,1H13.2c-0.5,0-1-0.4-1.1-0.9l0-0.1l0,0l-1.4-5.4h82.7L92,82.5z"/><path d="M75.4,49.2c0.2,0,5.3,1,7.1,7.3c0.2,0.6,0.7,0.9,1.2,0.9c0.1,0,0.2,0,0.3,0c0.7-0.2,1.1-0.9,0.9-1.5  c-2.2-7.9-8.8-9.1-9.1-9.1c-0.7-0.1-1.3,0.4-1.4,1C74.3,48.4,74.7,49,75.4,49.2z"/><path d="M83.3,60.6c0,0.9,0.7,1.5,1.5,1.5s1.5-0.7,1.5-1.5c0-0.9-0.7-1.5-1.5-1.5S83.3,59.8,83.3,60.6z"/><path d="M19.2,37.7c0.5-0.1,1.1-0.2,1.6,0.2c0.4,0.3,0.7,0.8,0.8,1.5c0.1,0.6,0.6,1,1.2,1c0.1,0,0.2,0,0.2,0c0.7-0.1,1.1-0.8,1-1.5  c-0.3-1.4-0.9-2.5-1.9-3.1c-0.9-0.6-2.2-0.8-3.5-0.5c-0.7,0.2-1.4,0-1.9-0.4c-0.6-0.6-0.3-1.5-0.3-1.6c0.3-0.6,0-1.4-0.6-1.6  c-0.6-0.3-1.4,0-1.6,0.6c-0.4,0.9-0.7,2.8,0.8,4.3C16.1,37.7,17.7,38.1,19.2,37.7z"/><path d="M11.6,44.7c1.3,0.7,2.9,0.6,4.3-0.3c0.4-0.3,1-0.5,1.6-0.4c0.4,0.1,0.9,0.5,1.3,1.2c0.2,0.4,0.7,0.6,1.1,0.6  c0.2,0,0.4-0.1,0.6-0.2c0.6-0.3,0.8-1.1,0.5-1.7c-0.7-1.3-1.7-2.1-2.8-2.3c-1.1-0.3-2.3,0-3.5,0.7c-0.6,0.4-1.4,0.5-1.9,0.2  C12,42.1,12,41.2,12,41.1c0-0.7-0.5-1.3-1.1-1.3c-0.7,0-1.3,0.5-1.3,1.1C9.4,41.9,9.8,43.8,11.6,44.7z"/><text x="0" y="115" fill="#000000" font-size="5px" font-weight="bold" font-family="'Helvetica Neue', Helvetica, Arial-Unicode, Arial, Sans-serif">Created by min</text><text x="0" y="120" fill="#000000" font-size="5px" font-weight="bold" font-family="'Helvetica Neue', Helvetica, Arial-Unicode, Arial, Sans-serif">from the Noun Project</text></svg>