<svg xmlns="http://www.w3.org/2000/svg" viewBox="-5.0 -10.0 110.0 135.0" x="0px" y="0px"><g data-name="43"><path d="M84.454,84.033a9.787,9.787,0,0,0,1.162-4,3.638,3.638,0,0,0-.668-2.1,3.086,3.086,0,0,0,.668-1.884V75.91a3.165,3.165,0,0,0-1.026-2.326,3.64,3.64,0,0,0,.423-4.532,4.251,4.251,0,0,0,2.613-3.917,18.911,18.911,0,0,0-18.89-18.889H66.681L68.5,20.739h1.625a2.183,2.183,0,0,0,1.686-3.57l-1.727-2.1a6.788,6.788,0,0,0-5.259-2.481H60.431V10.155A5.165,5.165,0,0,0,55.271,5H29.413a5.165,5.165,0,0,0-5.16,5.159v2.436H19.859A6.791,6.791,0,0,0,14.6,15.072l-1.726,2.1a2.183,2.183,0,0,0,1.685,3.57h1.627L20.771,85.1a4.606,4.606,0,0,0,1.42,2.969,4.489,4.489,0,0,0,2.067,1.072v1.513a3.924,3.924,0,0,0,3.92,3.92h12.44a.99.99,0,0,0,.289-.058A7.5,7.5,0,0,0,43.553,95H80.091a7.543,7.543,0,0,0,7.535-7.535A3.459,3.459,0,0,0,84.454,84.033Zm-58.2-73.878A3.163,3.163,0,0,1,29.413,7H55.271a3.163,3.163,0,0,1,3.16,3.159v2.436H26.253ZM14.394,18.634a.168.168,0,0,1,.024-.194l1.726-2.1a4.8,4.8,0,0,1,3.715-1.753H64.825a4.792,4.792,0,0,1,3.715,1.753l1.727,2.1a.183.183,0,0,1-.142.3H14.559A.168.168,0,0,1,14.394,18.634Zm6.115,34.634-.718-10.114H64.9l-.219,3.092H54.908a18.911,18.911,0,0,0-18.89,18.889,4.249,4.249,0,0,0,2.613,3.917,3.64,3.64,0,0,0,.423,4.532c-.046.043-.093.084-.137.13H21.965ZM18.192,20.744h48.3l-1.455,20.41H19.646ZM83.613,71.053a1.675,1.675,0,0,1-1.673,1.674H41.7a1.674,1.674,0,0,1,0-3.347H81.94A1.674,1.674,0,0,1,83.613,71.053Zm-43,5.989a1.145,1.145,0,0,1-.586-.994V75.91a1.182,1.182,0,0,1,1.181-1.181H82.435a1.182,1.182,0,0,1,1.181,1.181v.138a1.185,1.185,0,0,1-.609,1.009,1.246,1.246,0,0,1-.311.14,7.366,7.366,0,0,0-2.514,1.485,4.5,4.5,0,0,1-6.344,0,6.47,6.47,0,0,0-8.855,0,4.49,4.49,0,0,1-6.337,0,6.463,6.463,0,0,0-8.848,0,4.493,4.493,0,0,1-6.344,0A7.367,7.367,0,0,0,40.943,77.2,1.281,1.281,0,0,1,40.614,77.042Zm-.047,6.508a14.262,14.262,0,0,1-.539-3.522,1.636,1.636,0,0,1,.287-.933l.038.012A5.468,5.468,0,0,1,42.2,80.236a6.466,6.466,0,0,0,8.857,0,4.49,4.49,0,0,1,6.337,0,6.463,6.463,0,0,0,8.848,0,4.5,4.5,0,0,1,6.345,0,6.466,6.466,0,0,0,8.855,0,5.521,5.521,0,0,1,1.848-1.13l.043-.013a1.654,1.654,0,0,1,.287.933c0,1.437-1.12,3.87-1.679,3.975H41.707A1.643,1.643,0,0,1,40.567,83.55ZM85.626,65.135a2.247,2.247,0,0,1-2.245,2.245H40.263a2.247,2.247,0,0,1-2.245-2.245,16.908,16.908,0,0,1,16.89-16.889H68.736A16.909,16.909,0,0,1,85.626,65.135ZM22.766,84.952l-.658-9.238h15.94c0,.066-.02.129-.02.2v.138a3.1,3.1,0,0,0,.677,1.905,3.64,3.64,0,0,0-.677,2.075,16.921,16.921,0,0,0,.623,4.087,3.459,3.459,0,0,0-2.613,3.149H25.258a2.507,2.507,0,0,1-1.7-.649A2.568,2.568,0,0,1,22.766,84.952Zm3.492,5.7v-1.38h9.987a7.524,7.524,0,0,0,1.781,3.3H28.178A1.922,1.922,0,0,1,26.258,90.654ZM80.091,93H43.553a5.541,5.541,0,0,1-5.535-5.535A1.467,1.467,0,0,1,39.484,86H84.16a1.468,1.468,0,0,1,1.466,1.467A5.541,5.541,0,0,1,80.091,93ZM54.321,52.272l1.628-1.627a1,1,0,0,1,1.414,1.414l-1.628,1.627a1,1,0,0,1-1.414-1.414ZM60.3,58.52a1,1,0,0,1,0-1.414l1.628-1.628a1,1,0,0,1,1.414,1.414L61.715,58.52a1,1,0,0,1-1.414,0Zm5.98-4.834a1,1,0,0,1,0-1.414l1.627-1.627a1,1,0,1,1,1.414,1.414l-1.627,1.627a1,1,0,0,1-1.414,0Z"/></g><text x="0.0" y="117.5" font-size="5.0" font-weight="bold" font-family="Arbeit Regular, Helvetica, Arial-Unicode, Arial, Sans-serif" fill="#000000">Created by agnesID</text><text x="0.0" y="122.5" font-size="5.0" font-weight="bold" font-family="Arbeit Regular, Helvetica, Arial-Unicode, Arial, Sans-serif" fill="#000000">from Noun Project</text></svg>