<svg xmlns="http://www.w3.org/2000/svg" version="1.1" viewBox="-5.0 -10.0 110.0 135.0">
 <g>
  <path d="m29.387 60.02c-0.85938 0.015625-1.5469 0.71484-1.5469 1.5703 0 0.85938 0.6875 1.5586 1.5469 1.5703 0.85938-0.011718 1.5469-0.71094 1.5469-1.5703 0-0.85547-0.6875-1.5547-1.5469-1.5703z"/>
  <path d="m38.633 68.07c-0.85937 0.015626-1.5469 0.71484-1.5469 1.5703 0 0.85938 0.6875 1.5586 1.5469 1.5703 0.85938-0.011719 1.5469-0.71094 1.5469-1.5703 0-0.85547-0.6875-1.5547-1.5469-1.5703z"/>
  <path d="m38.785 53.875c-0.019531-0.85547-0.71875-1.5391-1.5703-1.5391-0.85547 0-1.5547 0.68359-1.5703 1.5391 0.015625 0.85547 0.71484 1.5391 1.5703 1.5391 0.85156 0 1.5508-0.68359 1.5703-1.5391z"/>
  <path d="m83.715 50.945c-0.54297-0.52344-1.3984-0.21094-1.7891-0.82812-0.14453-0.16406-0.30078-0.32031-0.46484-0.46484 0.19531-1.0781 0.89453-2.1875 0.35547-3.5117v-0.003906c-0.58594-1.0234-1.5352-1.793-2.6602-2.1562-0.16797-1.082 0.11719-2.3594-0.83203-3.4297-0.89453-0.76562-2.043-1.1758-3.2188-1.1523-0.51562-0.96484-0.66797-2.2656-1.9219-2.9648-1.0977-0.42969-2.3164-0.4375-3.4219-0.019532-0.80469-0.74609-1.3828-1.9141-2.8008-2.1602-1.0703-0.058594-2.1211 0.27734-2.9648 0.94141-0.46484-0.71094-1.2539-1.1367-2.1055-1.1406-0.67578 0.085937-1.2695 0.48437-1.6133 1.0703-0.51562-0.45312-1.2266-0.61719-1.8867-0.43359s-1.1836 0.69141-1.3906 1.3438c-0.33984-0.16016-0.71094-0.25-1.0898-0.26172 0.054688-0.32031 0.085938-0.64844 0.085938-0.97656 0-2.3594-1.3047-4.1445-3.0508-4.2461-0.83203-3-2.457-5.7188-4.6953-7.875-2.2422-2.1602-5.0234-3.6758-8.0508-4.3945v-10.469c0-0.41406-0.16406-0.8125-0.45703-1.1055-0.29297-0.29297-0.69141-0.45703-1.1055-0.45703h-5.1875c-0.41406 0-0.8125 0.16406-1.1055 0.45703s-0.45703 0.69141-0.45703 1.1055v10.457c-3.0312 0.71484-5.8164 2.2266-8.0664 4.3867-2.2461 2.1562-3.875 4.875-4.7148 7.875h-0.59375c-4.0234-0.03125-4.2891 7.9805-0.37891 8.4844 0.19531 3.1094 5.1367 44.223 4.4492 45.789 0 0.41406 0.16797 0.8125 0.46094 1.1055 0.29297 0.29297 0.6875 0.45703 1.1016 0.45703h22.16c0.41406 0 0.8125-0.16406 1.1055-0.45703 0.29297-0.29297 0.45703-0.69141 0.45703-1.1055v-4.8398c0.074218-0.11328 0.12891-0.23438 0.16797-0.36328l3.2383 12.965c0.17578 0.69531 0.80078 1.1836 1.5156 1.1836h20.531c0.71484 0 1.3398-0.48828 1.5156-1.1836l9.7852-39.125c0.23047-0.9375-0.125-1.9219-0.90625-2.4961zm-26.965-11.531c1.0195 0.43359 2.1953-0.011718 2.6719-1.0117 0.92188 0.60938 2.1602 0.38672 2.8125-0.51172 0.9375 1.0586 2.7773 0.46094 3.6836-0.19922 0.50781-0.33984 0.55469-0.33594 0.92969 0.17578 0.46484 0.64844 1.0938 1.1562 1.8242 1.4688 0.98047 0.21875 2.0039 0.17969 2.9648-0.10938 0.26172 0.96875 0.76953 1.8516 1.4688 2.5703 0.66016 0.45703 1.4336 0.72656 2.2344 0.77734 0.58984 0.0625 0.66797 0.046875 0.63281 0.71094v-0.003906c-0.042968 0.80469 0.13281 1.6016 0.51172 2.3086 0.62891 0.78125 1.4492 1.3828 2.3789 1.7578-0.82422 1.4531-0.64453 3.2695 0.44531 4.5391-1.1758 0.71484-2.6719 1.9375-4.0547 0.92969l-2.3438-1.5391c-1.8594-1.2227-4.2695-1.2383-6.1406-0.03125l-2.4375 1.5469h-0.003906c-0.82812 0.52344-1.875 0.55469-2.7305 0.078125l-3.8984-2.1289c-1.6211-0.91016-3.6289-0.74609-5.0781 0.41406l-1.332 1.0586c-0.77734 0.60938-1.7812 0.84375-2.7461 0.64453 0.019531-0.054687 0.035156-0.11328 0.050781-0.16797 0.019531-0.32031-0.050781-0.63672-0.20312-0.91797 0.43359-0.48438 0.55469-1.168 0.32031-1.7734 0.47656-0.43359 0.67969-1.0977 0.52344-1.7266 0.52734-0.37891 0.80469-1.0156 0.72266-1.6562 0.52344-0.21094 0.72656-0.85938 1.0664-1.2891 0.41406-0.91797 1.5703-1.6875 1.7773-2.6055 0.84375-0.22266 1.4492-0.96094 1.5078-1.8281 1.0781 0.24219 2.1562-0.41406 2.4414-1.4805zm1.6016 50.926-7.2422-34.574c0.76953-0.23438 1.4922-0.60938 2.125-1.1055 0.77344-0.53516 1.8906-1.9062 2.9492-1.1836h-0.003906c1.6992 1.0312 3.4766 1.9258 5.3125 2.6836v34.465h-3.1367c0.007812-0.09375 0.007812-0.19141-0.003907-0.28516zm-37.07-51.277h10.605v4.8945c-4.3086 0.82031-6.1719-1.1094-10.238-1.4922zm13.73 0h2.0625v3.4922c-0.69922 0.089843-1.3906 0.24219-2.0625 0.45312zm5.1875 0h11.062c-0.03125 0.16016-0.054688 0.32422-0.0625 0.48828-0.67188-0.089843-1.3477 0.13281-1.832 0.60547-0.27344 0.42188-0.71875 0.69141-0.92188 1.1523v0.003906c-0.46484 0.45312-0.85156 0.98438-1.1406 1.5703-0.3125 0.28906-0.51172 0.67969-0.55469 1.1016-2.5898-0.46875-3.3633-1.4023-6.5508-1.5469zm24.418 17.016c2.0977-0.49219 4.2852-3.7109 6.5781-2.1875 1.1094 0.82031 2.2969 1.5312 3.543 2.1172l-6.6211 34.355c-0.003907 0.085938-0.003907 0.17578 0.003906 0.26172h-3.5039zm-14.934-25.547h-9.4844v-9.0117c4.4297 1.2969 7.9648 4.6523 9.4844 9.0117zm-14.672 0v-9.5859c0.6875-0.054687 1.375-0.054687 2.0625 0v9.5859zm0-21.156h2.0625v8.4453c-0.6875-0.050781-1.375-0.050781-2.0625 0zm-3.125 12.133v9.0234h-9.5195c1.5234-4.375 5.0703-7.7383 9.5195-9.0234zm-13.172 12.148h33.875c0.34375 0.72266 0.34375 1.5586 0.003906 2.2812h-33.883c-0.33984-0.72266-0.33984-1.5586 0.003906-2.2812zm6.9961 49.586-0.003907-2.5547h19.035v2.5547zm19.477-5.6875h-19.773l-3.4258-31.918c3.1523 0.49609 3.7422 1.6289 7.8008 1.6055 1.7969 0.035156 3.582-0.28516 5.2539-0.94531 2.7148-0.96875 5.6797-0.96875 8.3906 0 0.59375 0.22656 1.2031 0.41406 1.8203 0.57031-0.12891 0.37109-0.12109 0.77734 0.019532 1.1445-0.69141 0.50391-0.91406 1.4336-0.52734 2.1953-0.57031 0.89062-1.1836 0.015625-2.2656 0.83984h-0.003907c-0.80859 0.57031-1.1836 1.5859-0.9375 2.5469l4.4023 17.621zm3.8438-6.8672c-0.007812-0.011719-3.9023-15.633-3.9102-15.648 0.99219 0.089844 1.8359 0.75391 2.8398 0.89453-0.011719 0.03125 7.2539 34.66 7.2578 34.691h-1.207zm23.066 19.938h-0.84766l6.6445-34.484c0.50781-0.12891 0.99219-0.33984 1.4375-0.61328l1.8242-1.1055z"/>
  <path d="m53.938 45.625c-0.34375 0.78125 0.003906 1.6914 0.78125 2.043 0.77344 0.35547 1.6914 0.023437 2.0586-0.74609 0.73047-1.625 2.4023-2.6172 4.1758-2.4805 0.85938 0.089844 1.6289-0.53125 1.7227-1.3867 0.082031-2.4102-3.1602-1.8555-4.6367-1.3281-1.8242 0.71484-3.2969 2.1133-4.1016 3.8984z"/>
  <path d="m69.121 44.777c0.94531 0.33984 1.7852 0.91797 2.4375 1.6836 0.73828 0.85547 0.79297 2.3789 2.1797 2.3281 2.5312-0.24609 1.3828-3.0469 0.24219-4.3047-1.0156-1.207-2.3359-2.125-3.8242-2.6562-0.80859-0.26172-1.6797 0.16797-1.9609 0.96875s0.12891 1.6797 0.92578 1.9805z"/>
 </g>
<text x="0.0" y="117.5" font-size="5.0" font-weight="bold" font-family="Arbeit Regular, Helvetica, Arial-Unicode, Arial, Sans-serif" fill="#000000">Created by putri kusuma astuti</text><text x="0.0" y="122.5" font-size="5.0" font-weight="bold" font-family="Arbeit Regular, Helvetica, Arial-Unicode, Arial, Sans-serif" fill="#000000">from Noun Project</text></svg>